<mxfile host="app.diagrams.net">
  <diagram name="Flowchart Mua Mon Do" id="flow2">
    <mxGraphModel dx="1136" dy="641" grid="1" gridSize="10" guides="1" tooltips="1" connect="1" arrows="1" fold="1" page="1" pageScale="1" pageWidth="827" pageHeight="1169" math="0" shadow="0">
      <root>
        <mxCell id="0"/>
        <mxCell id="1" parent="0"/>

        <!-- Start -->
        <mxCell id="2" value="Bắt đầu" style="ellipse;whiteSpace=wrap;html=1;" vertex="1" parent="1">
          <mxGeometry x="240" y="40" width="120" height="60" as="geometry"/>
        </mxCell>

        <!-- Step 1 -->
        <mxCell id="3" value="Vào cửa hàng và tìm kiếm món đồ" style="rounded=0;whiteSpace=wrap;html=1;" vertex="1" parent="1">
          <mxGeometry x="200" y="140" width="220" height="60" as="geometry"/>
        </mxCell>

        <!-- Decision -->
        <mxCell id="4" value="Món đồ có trong cửa hàng?" style="rhombus;whiteSpace=wrap;html=1;" vertex="1" parent="1">
          <mxGeometry x="220" y="240" width="180" height="80" as="geometry"/>
        </mxCell>

        <!-- Yes branch -->
        <mxCell id="5" value="Mua món đồ" style="rounded=0;whiteSpace=wrap;html=1;" vertex="1" parent="1">
          <mxGeometry x="100" y="370" width="140" height="60" as="geometry"/>
        </mxCell>

        <!-- No branch -->
        <mxCell id="6" value="Hỏi nhân viên hoặc rời đi" style="rounded=0;whiteSpace=wrap;html=1;" vertex="1" parent="1">
          <mxGeometry x="340" y="370" width="200" height="60" as="geometry"/>
        </mxCell>

        <!-- End (Yes) -->
        <mxCell id="7" value="Kết thúc" style="ellipse;whiteSpace=wrap;html=1;" vertex="1" parent="1">
          <mxGeometry x="100" y="480" width="120" height="60" as="geometry"/>
        </mxCell>

        <!-- End (No) -->
        <mxCell id="8" value="Kết thúc" style="ellipse;whiteSpace=wrap;html=1;" vertex="1" parent="1">
          <mxGeometry x="380" y="480" width="120" height="60" as="geometry"/>
        </mxCell>

        <!-- Connectors -->
        <mxCell id="9" edge="1" source="2" target="3" style="endArrow=block;" parent="1">
          <mxGeometry relative="1" as="geometry"/>
        </mxCell>

        <mxCell id="10" edge="1" source="3" target="4" style="endArrow=block;" parent="1">
          <mxGeometry relative="1" as="geometry"/>
        </mxCell>

        <mxCell id="11" edge="1" source="4" target="5" style="endArrow=block;" parent="1">
          <mxGeometry relative="1" as="geometry">
            <mxPoint x="170" y="330" as="targetPoint"/>
          </mxGeometry>
        </mxCell>

        <mxCell id="12" edge="1" source="4" target="6" style="endArrow=block;" parent="1">
          <mxGeometry relative="1" as="geometry">
            <mxPoint x="430" y="330" as="targetPoint"/>
          </mxGeometry>
        </mxCell>

        <mxCell id="13" edge="1" source="5" target="7" style="endArrow=block;" parent="1">
          <mxGeometry relative="1" as="geometry"/>
        </mxCell>

        <mxCell id="14" edge="1" source="6" target="8" style="endArrow=block;" parent="1">
          <mxGeometry relative="1" as="geometry"/>
        </mxCell>

      </root>
    </mxGraphModel>
  </diagram>
</mxfile>